<svg class="" viewBox="0 0 32 32" fill="none" xmlns="http://www.w3.org/2000/svg"><path d="M21.3281 10.667C23.4499 10.667 25.4847 11.5098 26.985 13.0101C28.4853 14.5104 29.3281 16.5453 29.3281 18.667V28.0003H23.9948V18.667C23.9948 17.9597 23.7138 17.2815 23.2137 16.7814C22.7136 16.2813 22.0354 16.0003 21.3281 16.0003C20.6209 16.0003 19.9426 16.2813 19.4425 16.7814C18.9424 17.2815 18.6615 17.9597 18.6615 18.667V28.0003H13.3281V18.667C13.3281 16.5453 14.171 14.5104 15.6713 13.0101C17.1716 11.5098 19.2064 10.667 21.3281 10.667Z" fill="#35f048a7" stroke="#35f048a7" stroke-width="1.33333" stroke-linecap="round" stroke-linejoin="round"></path><path d="M7.9974 12H2.66406V28H7.9974V12Z" fill="#35f048a7" stroke="#35f048a7" stroke-width="1.33333" stroke-linecap="round" stroke-linejoin="round"></path><path d="M5.33073 8.00033C6.80349 8.00033 7.9974 6.80642 7.9974 5.33366C7.9974 3.8609 6.80349 2.66699 5.33073 2.66699C3.85797 2.66699 2.66406 3.8609 2.66406 5.33366C2.66406 6.80642 3.85797 8.00033 5.33073 8.00033Z" fill="#35f048a7" stroke="#35f048a7" stroke-width="1.33333" stroke-linecap="round" stroke-linejoin="round"></path></svg>